<?xml version="1.0" encoding="utf-8"?>
<!-- Generator: Adobe Illustrator 16.0.0, SVG Export Plug-In . SVG Version: 6.00 Build 0)  -->
<!DOCTYPE svg PUBLIC "-//W3C//DTD SVG 1.1//EN" "http://www.w3.org/Graphics/SVG/1.1/DTD/svg11.dtd">
<svg version="1.1" id="レイヤー_1" xmlns="http://www.w3.org/2000/svg" xmlns:xlink="http://www.w3.org/1999/xlink" x="0px"
	 y="0px" width="1000px" height="1000px" viewBox="0 0 1000 1000" enable-background="new 0 0 1000 1000" xml:space="preserve">
<g>
	<polygon points="539.34,705.903 523.467,518.925 635.84,297.11 652.604,494.594 	"/>
</g>
<polyline points="455.395,592.444 375.619,460.414 506.293,201.686 622.985,260.621 455.395,592.444 "/>
<g>
	
		<rect x="182.987" y="220.449" transform="matrix(0.9618 0.2737 -0.2737 0.9618 146.5491 -48.8611)" width="130.733" height="560.474"/>
</g>
<g>
	<polygon points="667.812,801.467 552.988,738.969 836.074,210.227 950.898,272.723 	"/>
</g>
<polyline points="220.835,257.463 171.957,429.367 171.957,429.367 72.62,264.959 184.514,197.349 220.835,257.463 "/>
<polyline points="505.224,736.412 393.328,804.022 298.34,646.812 347.251,474.973 "/>
</svg>
